<svg xmlns="http://www.w3.org/2000/svg" viewBox="0 0 64 64" fill="none">
  <!-- Outer circle -->
  <circle cx="32" cy="32" r="30" fill="#0F172A" stroke="#FF6B35" stroke-width="2"/>
  <!-- Saffron top band -->
  <path d="M8 22 Q32 14 56 22 L56 28 Q32 20 8 28 Z" fill="#FF6B35"/>
  <!-- White middle band -->
  <path d="M8 28 Q32 20 56 28 L56 36 Q32 28 8 36 Z" fill="#F8FAFC"/>
  <!-- Green bottom band -->
  <path d="M8 36 Q32 28 56 36 L56 42 Q32 34 8 42 Z" fill="#22C55E"/>
  <!-- Ashoka Chakra (simplified) -->
  <circle cx="32" cy="32" r="6" fill="none" stroke="#1e3a8a" stroke-width="1.5"/>
  <circle cx="32" cy="32" r="1.5" fill="#1e3a8a"/>
  <!-- Chakra spokes (24) -->
  <g stroke="#1e3a8a" stroke-width="0.8">
    <line x1="32" y1="26.5" x2="32" y2="28"/>
    <line x1="34.5" y1="26.8" x2="33.8" y2="28.2"/>
    <line x1="36.7" y1="27.8" x2="35.5" y2="28.8"/>
    <line x1="38.2" y1="29.5" x2="36.8" y2="30"/>
    <line x1="38.5" y1="31.5" x2="37" y2="31.5"/>
    <line x1="38" y1="33.5" x2="36.8" y2="33"/>
    <line x1="36.7" y1="35.5" x2="35.5" y2="34.5"/>
    <line x1="34.5" y1="37" x2="33.8" y2="35.8"/>
    <line x1="32" y1="37.5" x2="32" y2="36"/>
    <line x1="29.5" y1="37" x2="30.2" y2="35.8"/>
    <line x1="27.3" y1="35.5" x2="28.5" y2="34.5"/>
    <line x1="25.8" y1="33.5" x2="27.2" y2="33"/>
    <line x1="25.5" y1="31.5" x2="27" y2="31.5"/>
    <line x1="26" y1="29.5" x2="27.2" y2="30"/>
    <line x1="27.3" y1="27.8" x2="28.5" y2="28.8"/>
    <line x1="29.5" y1="26.8" x2="30.2" y2="28.2"/>
  </g>
</svg>
